<svg width="70" height="70" viewBox="0 0 70 70" fill="none" xmlns="http://www.w3.org/2000/svg">
<path id="Vector" d="M35 68C53.2254 68 68 53.2254 68 35C68 16.7746 53.2254 2 35 2M35 68C16.7746 68 2 53.2254 2 35C2 16.7746 16.7746 2 35 2M35 68C42.6737 68 48.8947 53.2254 48.8947 35C48.8947 16.7746 42.6737 2 35 2M35 68C27.3261 68 21.1053 53.2254 21.1053 35C21.1053 16.7746 27.3261 2 35 2M3.73684 24.5789H66.2632M3.73684 45.4211H66.2632" stroke="#435256" stroke-width="4" stroke-linecap="round"/>
</svg>
